<mxfile host="app.diagrams.net" modified="2023-12-06T02:09:07.270Z" agent="Mozilla/5.0 (Windows NT 10.0; Win64; x64; rv:120.0) Gecko/20100101 Firefox/120.0" etag="EyFUAKXJ5pGRxLAmW5k4" version="22.1.5" type="github">
  <diagram name="Page-1" id="OGA-6inMSd8Yi8RKxXUy">
    <mxGraphModel dx="1086" dy="745" grid="1" gridSize="10" guides="1" tooltips="1" connect="1" arrows="1" fold="1" page="1" pageScale="1" pageWidth="850" pageHeight="1100" math="0" shadow="0">
      <root>
        <mxCell id="0" />
        <mxCell id="1" parent="0" />
      </root>
    </mxGraphModel>
  </diagram>
</mxfile>
